<?xml version="1.0" encoding="utf-8"?>
<!-- Generator: Adobe Illustrator 16.0.0, SVG Export Plug-In . SVG Version: 6.00 Build 0)  -->
<!DOCTYPE svg PUBLIC "-//W3C//DTD SVG 1.1//EN" "http://www.w3.org/Graphics/SVG/1.1/DTD/svg11.dtd">
<svg version="1.1" id="Layer_1_xA0_Image_1_" xmlns="http://www.w3.org/2000/svg" xmlns:xlink="http://www.w3.org/1999/xlink"
	 x="0px" y="0px" width="177.121px" height="177.121px" viewBox="0 0 177.121 177.121" enable-background="new 0 0 177.121 177.121"
	 xml:space="preserve">
<path fill="#FFFFFF" d="M85.647,4.077h6.385c0.256,0.046,0.512,0.121,0.77,0.134c3.455,0.172,6.89,0.538,10.302,1.114
	c4.463,0.755,8.84,1.853,13.117,3.328c13.646,4.702,25.354,12.382,35.104,23.022c8.293,9.053,14.312,19.444,18.098,31.123
	c1.349,4.153,2.354,8.391,3.021,12.705c0.336,2.18,0.662,4.362,0.709,6.575c0.008,0.233,0.089,0.463,0.137,0.694v11.973
	c-0.186,0.229-0.127,0.506-0.145,0.766c-0.028,0.479-0.018,0.96-0.063,1.435c-0.334,3.281-0.828,6.537-1.523,9.767
	c-1.502,6.948-3.844,13.603-7.037,19.942c-4.982,9.908-11.656,18.521-20.012,25.814c-8.85,7.733-18.883,13.387-30.084,16.946
	c-6.486,2.063-13.135,3.313-19.934,3.739c-0.236,0.014-0.469,0.084-0.699,0.128h-9.896c-0.259-0.046-0.517-0.11-0.776-0.136
	c-1.852-0.188-3.709-0.314-5.555-0.553c-3.324-0.426-6.611-1.063-9.854-1.91c-15.447-4.055-28.725-11.824-39.826-23.301
	c-6.074-6.273-11.035-13.349-14.902-21.183C7.831,115.764,4.958,104.727,4.378,93.1c-0.029-0.586-0.107-1.156-0.295-1.711V85.96
	c0.216-0.496,0.271-1.021,0.291-1.555c0.068-1.914,0.256-3.818,0.474-5.72c0.397-3.464,1.009-6.89,1.858-10.269
	c3.93-15.652,11.678-29.119,23.222-40.39c6.95-6.787,14.864-12.188,23.692-16.244c6.873-3.159,14.049-5.334,21.512-6.56
	c3.201-0.525,6.427-0.855,9.669-1.014C85.083,4.202,85.385,4.256,85.647,4.077 M88.317,151.745
	c-1.886,0.021-3.928-0.103-5.969-0.296c-2.997-0.286-5.958-0.784-8.875-1.521c-11.376-2.865-21.299-8.363-29.57-16.691
	c-11.457-11.534-17.494-25.518-18.391-41.721c-0.26-4.69,0.102-9.357,0.952-13.979c1.095-5.947,2.985-11.631,5.717-17.027
	c5.147-10.17,12.466-18.416,22.025-24.63c9.319-6.058,19.575-9.34,30.651-10.05c3.162-0.202,6.331-0.15,9.486,0.154
	c3.103,0.298,6.169,0.802,9.189,1.566c11.211,2.838,20.971,8.284,29.223,16.381c6.953,6.821,11.986,14.877,15.188,24.076
	c0.244,0.702,0.457,1.418,0.717,2.113c0.406,1.092,1.383,1.782,2.506,1.76c0.367-0.008,0.738-0.097,1.096-0.189
	c1.439-0.377,2.875-0.77,4.313-1.157c0.616-0.166,1.239-0.308,1.846-0.507c1.022-0.337,1.617-1.063,1.83-2.12
	c0.101-0.49,0.015-0.955-0.129-1.413c-0.229-0.736-0.47-1.469-0.72-2.197c-3.75-10.895-9.674-20.441-17.819-28.591
	c-5.938-5.94-12.707-10.728-20.254-14.414c-10.25-5.01-21.084-7.542-32.488-7.618c-3.941-0.025-7.863,0.293-11.762,0.9
	c-4.238,0.661-8.395,1.656-12.459,3.027c-13.059,4.403-24.088,11.834-33.068,22.281C20.497,52.744,13.892,69.379,13.45,86.73
	c-0.073,2.85-0.002,5.693,0.244,8.529c0.269,3.075,0.732,6.123,1.379,9.144c1.343,6.272,3.434,12.283,6.313,18.016
	c4.502,8.955,10.569,16.689,18.173,23.223c12.815,11.004,29.348,17.602,46.523,18.107c3.516,0.104,7.021-0.014,10.516-0.396
	c3.229-0.354,6.422-0.912,9.572-1.688c14.262-3.521,26.496-10.563,36.654-21.174c5.037-5.266,9.18-11.165,12.484-17.658
	c0.896-1.43,0.432-3.38-1.404-4.146c-1.838-0.771-3.631-1.65-5.443-2.479c-0.191-0.089-0.389-0.173-0.59-0.24
	c-1.203-0.396-2.457,0.056-3.129,1.123c-0.127,0.202-0.229,0.42-0.34,0.634c-3.201,6.168-7.297,11.666-12.305,16.487
	C120.382,145.488,104.55,151.775,88.317,151.745 M122.073,115.178c-0.197,0.262-0.361,0.498-0.544,0.719
	c-2.924,3.566-6.329,6.596-10.239,9.045c-5.729,3.596-11.963,5.711-18.69,6.396c-3.481,0.355-6.958,0.273-10.417-0.24
	c-4.748-0.707-9.26-2.166-13.501-4.418c-9.364-4.973-16.058-12.365-20.015-22.213c-0.297-0.738-0.537-1.5-0.824-2.244
	c-0.396-1.033-1.154-1.621-2.246-1.801c-0.465-0.076-0.9,0.026-1.337,0.141c-1.259,0.33-2.515,0.674-3.772,1.017
	c-0.795,0.215-1.594,0.418-2.386,0.646c-1.536,0.441-2.235,2.104-1.813,3.342c0.078,0.228,0.137,0.457,0.213,0.687
	c1.658,4.918,3.938,9.526,6.908,13.787c5.666,8.126,13.023,14.249,21.984,18.446c6.657,3.119,13.674,4.8,21.018,5.078
	c4.377,0.168,8.715-0.213,13.004-1.095c4.871-1,9.525-2.616,13.961-4.87c5.432-2.765,10.26-6.339,14.494-10.719
	c2.746-2.84,5.174-5.933,7.219-9.313c1.229-2.023,2.363-4.104,3.537-6.153c0.078-0.136,0.135-0.284,0.203-0.433
	c-0.25-0.289-0.58-0.412-0.875-0.582c-9.066-5.244-18.141-10.484-27.209-15.729c-2.051-1.188-4.098-2.371-6.146-3.549
	c-0.166-0.098-0.32-0.294-0.604-0.141c0,2.271-0.002,4.557,0.002,6.842c0.004,2.281-0.021,4.564,0.018,6.854
	c0.891,0.516,1.736,1.01,2.588,1.502c0.873,0.506,1.75,1.01,2.625,1.519c0.854,0.489,1.703,0.981,2.558,1.478
	c0.851,0.491,1.702,0.984,2.554,1.479c0.854,0.492,1.703,0.986,2.557,1.479c0.875,0.504,1.758,0.997,2.625,1.516
	C120.346,114.145,121.227,114.58,122.073,115.178 M38.183,66.6c0.215,0.146,0.359,0.258,0.516,0.348
	c11.33,6.541,22.66,13.08,33.992,19.615c0.035,0.021,0.1-0.01,0.188-0.021c0.015-0.171,0.045-0.35,0.045-0.528
	c0.002-4.23,0.003-8.459-0.001-12.689c0-0.18-0.04-0.361-0.062-0.535c-0.256-0.15-0.484-0.286-0.715-0.419
	c-1.841-1.063-3.683-2.128-5.525-3.192c-3.684-2.129-7.368-4.256-11.049-6.39c-0.244-0.142-0.545-0.224-0.699-0.535
	c0.18-0.227,0.357-0.458,0.543-0.684c4.053-4.925,8.96-8.761,14.724-11.488c5.584-2.644,11.478-4.011,17.649-4.124
	c3.848-0.07,7.639,0.41,11.369,1.373c13.541,3.498,24.59,13.473,29.434,26.592c0.176,0.475,0.324,0.957,0.506,1.428
	c0.479,1.232,1.607,1.899,2.912,1.725c0.236-0.031,0.471-0.096,0.701-0.156c1.771-0.472,3.543-0.945,5.314-1.42
	c0.309-0.082,0.623-0.148,0.922-0.256c1.102-0.395,1.785-1.4,1.789-2.575c0.002-0.493-0.156-0.94-0.314-1.392
	c-4.506-13.059-12.738-23.072-24.662-30.026c-6.973-4.065-14.52-6.394-22.557-7.124c-2.756-0.25-5.521-0.27-8.289-0.085
	c-3.219,0.216-6.393,0.69-9.522,1.474C64.114,38.334,54.635,44.108,47,52.877c-2.223,2.553-4.223,5.271-5.838,8.258
	c-0.771,1.426-1.553,2.848-2.328,4.272C38.631,65.778,38.428,66.15,38.183,66.6 M94.456,90.023c0-10.43,0-20.855,0-31.283
	c0-0.24,0.008-0.48-0.004-0.719c-0.056-1.053-0.582-1.797-1.504-2.275c-0.41-0.212-0.855-0.275-1.314-0.271
	c-1.409,0.008-2.818,0.002-4.229,0.002c-0.799,0-1.598-0.023-2.396,0.009c-1.374,0.056-2.452,1.122-2.553,2.491
	c-0.021,0.265-0.017,0.531-0.017,0.798c0,20.829,0,41.659,0,62.489c0,0.266-0.004,0.532,0.017,0.797
	c0.088,1.2,0.899,2.153,2.077,2.426c0.283,0.065,0.578,0.096,0.869,0.097c2.049,0.008,4.096,0.004,6.145,0.004
	c0.133-0.001,0.268-0.003,0.398-0.019c1.475-0.142,2.479-1.221,2.508-2.697c0.006-0.27,0.002-0.532,0.002-0.801
	C94.456,110.721,94.456,100.372,94.456,90.023"/>
</svg>
